<svg width="127" height="64" viewBox="0 0 127 64" fill="none" xmlns="http://www.w3.org/2000/svg">
<g id="AT&#38;T_svg">
<g id="g3">
<path id="path5" d="M108.922 41.5695C108.633 41.5695 108.434 41.3536 108.434 41.0429V25.6121H103.573C103.284 25.6121 103.084 25.3971 103.084 25.0861V22.9575C103.084 22.6459 103.284 22.4302 103.573 22.4302H116.512C116.801 22.4302 117 22.6461 117 22.9575V25.086C117 25.3967 116.801 25.6121 116.512 25.6121H111.652V41.0427C111.652 41.3536 111.452 41.5695 111.164 41.5695H108.922ZM71.6842 33.8656L69.1323 25.9714L66.5576 33.8656H71.6842ZM77.3439 40.946C77.4554 41.2579 77.2775 41.5695 76.9667 41.5695H74.6589C74.3258 41.5695 74.1258 41.4026 74.0145 41.0661L72.7056 37.0005H65.5375L64.2263 41.0661C64.1162 41.4027 63.9157 41.5695 63.5834 41.5695H61.4091C61.1201 41.5695 60.92 41.2577 61.0312 40.946L67.0457 22.9097C67.157 22.5737 67.3567 22.431 67.6889 22.431H70.663C70.9962 22.431 71.2182 22.5738 71.3291 22.9097L77.3439 40.946ZM94.5839 38.9853C96.0037 38.9853 96.9585 38.2449 97.7355 36.9764L94.1407 32.8132C92.7639 33.6511 91.8757 34.4874 91.8757 36.1625C91.8759 37.8135 93.1182 38.9853 94.5839 38.9853ZM95.5825 24.966C94.4287 24.966 93.7629 25.7563 93.7629 26.8087C93.7629 27.622 94.1616 28.3398 95.0719 29.3927C96.6475 28.4112 97.3138 27.8134 97.3138 26.7611C97.3138 25.7794 96.7369 24.966 95.5825 24.966ZM105.415 40.8996C105.704 41.2348 105.526 41.5695 105.17 41.5695H102.352C101.974 41.5695 101.775 41.4734 101.531 41.162L99.844 39.1533C98.7123 40.7802 97.1352 42 94.5168 42C91.2767 42 88.7236 39.8949 88.7236 36.2831C88.7236 33.5071 90.1004 32.0235 92.1869 30.7798C91.1651 29.5119 90.7 28.1721 90.7 27.0005C90.7 24.0332 92.6307 22 95.5377 22C98.5118 22 100.332 23.8906 100.332 26.6891C100.332 29.0815 98.7344 30.42 97.0471 31.4255L99.5332 34.3212L100.931 31.6887C101.109 31.3781 101.308 31.2581 101.663 31.2581H103.815C104.171 31.2581 104.371 31.5219 104.15 31.9284L101.663 36.521L105.415 40.8996ZM83.266 41.5695C83.5545 41.5695 83.7552 41.3536 83.7552 41.0429V25.6121H88.615C88.9036 25.6121 89.1031 25.3971 89.1031 25.0861V22.9575C89.1031 22.6459 88.9036 22.4302 88.615 22.4302H75.6753C75.3864 22.4302 75.187 22.6461 75.187 22.9575V25.086C75.187 25.3967 75.3865 25.6121 75.6753 25.6121H80.5351V41.0427C80.5351 41.3536 80.7355 41.5695 81.0237 41.5695H83.266Z" fill="black"/>
<path id="path9" d="M18.5092 49.3761C22.239 52.2645 26.9206 54 31.9998 54C37.5582 54 42.6255 51.9355 46.4928 48.5466C46.5397 48.5052 46.5166 48.4777 46.4704 48.5052C44.735 49.6646 39.7889 52.1956 32.0001 52.1956C25.2312 52.1956 20.9535 50.6847 18.5379 49.3358C18.4916 49.313 18.4745 49.3477 18.5092 49.3761ZM33.4932 50.5007C38.9071 50.5007 44.8562 49.0243 48.4143 46.1018C49.388 45.3055 50.3154 44.2457 51.1461 42.8214C51.6242 42.0019 52.0919 41.0282 52.4728 40.0712C52.4897 40.0245 52.4609 40.0018 52.4259 40.0543C49.1171 44.9255 39.5356 47.9638 29.6422 47.9638C22.6491 47.9638 15.1247 45.7267 12.1789 41.455C12.1499 41.4155 12.1209 41.4324 12.1386 41.4778C14.8828 47.313 23.2083 50.5007 33.4932 50.5007ZM27.5781 40.8203C16.3183 40.8203 11.0091 35.574 10.046 31.9938C10.0341 31.942 10 31.9534 10 31.9999C10 33.2052 10.1206 34.7606 10.3281 35.7931C10.427 36.2956 10.8359 37.0843 11.4353 37.7129C14.1618 40.5561 20.9593 44.5399 32.7316 44.5399C48.7708 44.5399 52.4382 39.1949 53.187 37.4372C53.7226 36.1801 54 33.9084 54 32.0001C54 31.5383 53.9884 31.1694 53.971 30.8073C53.971 30.7485 53.937 30.7437 53.9252 30.801C53.1237 35.102 39.42 40.8203 27.5781 40.8203ZM12.1209 22.5619C11.4757 23.8429 10.7605 26.0039 10.5479 27.1224C10.4547 27.6016 10.4944 27.8318 10.6624 28.1894C12.012 31.0539 18.8383 35.6372 34.7614 35.6372C44.4757 35.6372 52.022 33.2497 53.2446 28.8928C53.4697 28.0907 53.4818 27.2439 53.1926 26.1028C52.8695 24.8278 52.2643 23.3409 51.7521 22.2968C51.7352 22.2627 51.7053 22.2678 51.7114 22.308C51.9017 28.0225 35.9722 31.7055 27.9349 31.7055C19.2291 31.7055 11.966 28.2354 11.966 23.8538C11.966 23.4328 12.0531 23.0117 12.1618 22.5735C12.1727 22.5334 12.1384 22.5268 12.1209 22.5619ZM46.5285 15.5457C46.6209 15.6906 46.667 15.8453 46.667 16.0535C46.667 18.4979 39.1889 22.8221 27.2847 22.8221C18.5379 22.8221 16.9003 19.576 16.9003 17.5116C16.9003 16.7737 17.1832 16.0186 17.8062 15.2518C17.8402 15.2062 17.8113 15.1886 17.7721 15.2225C16.6358 16.1859 15.5917 17.2699 14.6758 18.4401C14.2382 18.9935 13.9665 19.4837 13.9665 19.7775C13.9665 24.0556 24.6893 27.1574 34.7155 27.1574C45.3986 27.1574 50.1664 23.6685 50.1664 20.6024C50.1664 19.5066 49.74 18.867 48.6493 17.6268C47.9413 16.82 47.2716 16.1631 46.5627 15.5165C46.5285 15.4882 46.5046 15.5112 46.5285 15.5457ZM43.2534 13.1018C39.9564 11.1248 36.1277 10 32.0001 10C27.8436 10 23.8996 11.1641 20.5907 13.1935C19.5982 13.8046 19.0396 14.2943 19.0396 14.9238C19.0396 16.7794 23.3746 18.7747 31.0654 18.7747C38.6765 18.7747 44.5797 16.5892 44.5797 14.4856C44.5797 13.9834 44.141 13.6321 43.2534 13.1018Z" fill="#00A8E0"/>
</g>
</g>
</svg>
