<svg width="117" height="64" viewBox="0 0 117 64" fill="none" xmlns="http://www.w3.org/2000/svg">
<g id="cisco_svg">
<path id="Vector" d="M10 27.5766C10.0841 28.5172 10.9929 29.2519 12.0991 29.2519C13.2052 29.2519 14.114 28.5172 14.1981 27.5822V27.5766V23.5609C14.1464 22.5981 13.2278 21.8328 12.0991 21.8328C10.9703 21.8328 10.0517 22.5981 10 23.5582V23.5609V27.5766ZM21.6241 27.5766C21.7211 28.5089 22.6267 29.2324 23.7264 29.2324C24.826 29.2324 25.7317 28.5089 25.8287 27.5822V27.5738V18.5712C25.7769 17.6084 24.8584 16.8431 23.7296 16.8431C22.6008 16.8431 21.6823 17.6084 21.6306 18.5685V27.5738L21.6241 27.5766ZM33.19 31.2055C33.2417 32.1684 34.1602 32.9336 35.289 32.9336C36.4178 32.9336 37.3363 32.1684 37.3881 31.2083V31.2055V11.7282C37.3363 10.7653 36.4178 10 35.289 10C34.1602 10 33.2417 10.7653 33.19 11.7254V11.7282V31.2055ZM44.8561 27.5766C44.9078 28.5395 45.8264 29.3048 46.9552 29.3048C48.0839 29.3048 49.0025 28.5395 49.0542 27.5794V27.5766V18.574C49.0025 17.6112 48.0839 16.8459 46.9552 16.8459C45.8264 16.8459 44.9078 17.6112 44.8561 18.5712V18.574V27.5766ZM56.4575 27.5766C56.5675 28.5005 57.4634 29.213 58.5566 29.213C59.6498 29.213 60.5489 28.4978 60.6557 27.5822V27.5738V23.5582C60.6039 22.5953 59.6854 21.83 58.5566 21.83C57.4278 21.83 56.5093 22.5953 56.4575 23.5554V27.5766ZM68.1722 27.5766C68.2433 28.5284 69.1554 29.277 70.2745 29.277C71.3935 29.277 72.3056 28.5284 72.3768 27.5822V27.5766V18.574C72.325 17.6112 71.4065 16.8459 70.2777 16.8459C69.1489 16.8459 68.2304 17.6112 68.1787 18.5712V18.574V27.5766H68.1722ZM79.6443 31.2055C79.7284 32.1461 80.6372 32.8808 81.7433 32.8808C82.8495 32.8808 83.7583 32.1461 83.8424 31.2111V31.2055V11.7282C83.7906 10.7653 82.8721 10 81.7433 10C80.6145 10 79.696 10.7653 79.6443 11.7254V11.7282V31.2055ZM91.3072 27.5766C91.3945 28.5172 92.3033 29.2547 93.4095 29.2547C94.5156 29.2547 95.4277 28.52 95.5117 27.5822V27.5766V18.574C95.4406 17.6223 94.5285 16.8737 93.4095 16.8737C92.2904 16.8737 91.3783 17.6223 91.3072 18.5685V18.574V27.5766ZM102.802 27.5766C102.854 28.5395 103.772 29.3048 104.901 29.3048C106.03 29.3048 106.948 28.5395 107 27.5794V27.5766V23.5609C106.948 22.5981 106.03 21.8328 104.901 21.8328C103.772 21.8328 102.854 22.5981 102.802 23.5582V23.5609V27.5766ZM80.4173 46.4751C80.4949 50.6355 84.4343 53.9833 89.2793 53.9833C89.9585 53.9833 90.6182 53.9165 91.2522 53.7941L91.194 53.8024C95.2271 53.129 98.2318 50.1123 98.2318 46.4946C98.2318 43.798 96.5629 41.4353 94.066 40.1302L94.0272 40.1107C92.6947 39.3899 91.0743 38.9641 89.3375 38.9641C84.4795 38.9641 80.5272 42.3064 80.4205 46.4668V46.4751H80.4173ZM86.5786 43.5058C87.3354 42.9715 88.3122 42.6487 89.3763 42.6487C91.8214 42.6487 93.804 44.3546 93.804 46.4584C93.804 47.6467 93.1701 48.7098 92.1804 49.4083L92.174 49.4138L92.106 49.4611C91.3686 49.9537 90.4274 50.2487 89.4086 50.2487C86.9635 50.2487 84.9776 48.5428 84.9776 46.4361C84.9776 45.259 85.5986 44.2071 86.5721 43.5086L86.5786 43.503V43.5058ZM37.4237 53.7161H41.6671V39.2257H37.4237V53.7161ZM47.4274 50.2542L47.4112 53.5826L47.6926 53.6243C48.4429 53.7523 49.3647 53.8581 50.2962 53.9165L50.3738 53.9193C50.8266 53.9583 51.3538 53.9805 51.8875 53.9805C52.1883 53.9805 52.489 53.9722 52.7898 53.9583L52.7478 53.961C53.5661 53.9082 54.3229 53.7774 55.0474 53.5826L54.9762 53.5993C55.8657 53.3794 56.6387 53.0121 57.292 52.5334L57.2823 52.539C57.8774 52.0993 58.3367 51.5399 58.618 50.9054L58.6278 50.8776C58.8509 50.3906 58.9835 49.8285 58.9835 49.2385C58.9835 48.6263 58.8445 48.0419 58.5889 47.5076L58.6019 47.5382C58.3302 46.9649 57.9194 46.4835 57.402 46.1022L57.3955 46.0966C56.9006 45.7154 56.3088 45.4121 55.6619 45.22L55.6263 45.2117L52.709 44.2794C52.3597 44.1486 52.0815 43.9204 51.9166 43.6338L51.9133 43.6254C51.8584 43.5225 51.826 43.4 51.826 43.272C51.826 43.1217 51.8713 42.9826 51.9489 42.8602L51.9457 42.8657C52.0977 42.6542 52.3079 42.4873 52.5602 42.3759L52.5699 42.3732C52.8707 42.2451 53.2232 42.1533 53.5919 42.1171H53.6081C53.8669 42.0837 54.1676 42.0643 54.4749 42.0643C54.8274 42.0643 55.1703 42.0893 55.5034 42.1394L55.4678 42.1338C56.2861 42.2118 57.0171 42.3286 57.7286 42.4873L57.6219 42.4678L57.7739 42.4956V39.4233L57.4957 39.3704C56.8974 39.2396 56.1535 39.12 55.3934 39.0421L55.2997 39.0337C54.8533 38.9808 54.3358 38.9502 53.8086 38.9502C53.317 38.9502 52.8319 38.9781 52.3564 39.0281L52.4147 39.0226C51.1468 39.1255 50.0083 39.543 49.0833 40.1775L49.0963 40.1691C48.4623 40.6005 47.974 41.171 47.6861 41.8249L47.6764 41.85C47.4759 42.3147 47.3594 42.8518 47.3594 43.4139C47.3594 43.9761 47.4759 44.5132 47.6893 45.0085L47.6764 44.9751C47.906 45.4955 48.2521 45.938 48.692 46.2998H48.6952C49.0769 46.617 49.5135 46.8898 49.9857 47.1068L50.018 47.1207C50.5937 47.3907 51.26 47.6217 51.9619 47.7858L52.0265 47.7998C52.2562 47.8582 52.4858 47.9222 52.7122 47.9862L53.055 48.0947L53.1521 48.1281C53.5079 48.2395 53.8119 48.4036 54.0674 48.6151C54.2453 48.7571 54.3843 48.9324 54.4717 49.13L54.4749 49.1383C54.5008 49.2246 54.517 49.322 54.517 49.425C54.517 49.5224 54.504 49.617 54.4749 49.706L54.4781 49.6977C54.3649 49.9982 54.1256 50.2403 53.8151 50.3823L53.8086 50.385C53.4852 50.5298 53.11 50.6355 52.7154 50.6828L52.696 50.6856C52.3176 50.7385 51.8778 50.7691 51.4314 50.7691C51.2697 50.7691 51.108 50.7663 50.9463 50.7579H50.9689C50.1118 50.6995 49.3421 50.6077 48.5852 50.4824L48.7178 50.5019C48.3297 50.4296 47.9427 50.3517 47.5567 50.2682L47.4274 50.2542ZM31.5663 53.4629V49.6003L31.479 49.6337C30.5346 50.0372 29.4285 50.2904 28.2609 50.3377H28.2415C28.1315 50.3461 28.0021 50.3489 27.8728 50.3489C26.7828 50.3489 25.7769 50.0344 24.9716 49.5057L24.9845 49.514C24.3312 49.0771 23.8364 48.4871 23.5744 47.8081L23.5647 47.7831C23.4094 47.3935 23.3221 46.9454 23.3221 46.4779C23.3221 46.1161 23.3738 45.7683 23.4741 45.4343L23.4676 45.4621C23.6843 44.6579 24.1986 43.9761 24.9037 43.4891L24.9101 43.4835C25.5279 43.0355 26.3074 42.7321 27.1612 42.6431L27.1806 42.6403C27.4297 42.6153 27.7207 42.6014 28.0118 42.6014C29.2764 42.6014 30.4667 42.8713 31.5081 43.3472L31.4661 43.3305L31.5631 43.375V39.4901L31.3561 39.4428C30.305 39.145 29.0953 38.9725 27.8404 38.9725C27.6399 38.9725 27.4394 38.9781 27.2421 38.9864H27.2712C25.9419 39.017 24.6934 39.2758 23.5614 39.7239L23.6197 39.7016C22.4294 40.1775 21.43 40.8509 20.6409 41.6747L20.6279 41.6858C19.4215 42.991 18.6906 44.6635 18.6906 46.4835C18.6906 48.22 19.3568 49.8229 20.4791 51.1142L20.463 51.0947C21.637 52.3831 23.2736 53.3182 25.1592 53.7134L25.2174 53.7245C26.0066 53.897 26.9154 53.9972 27.8501 53.9972C29.0565 53.9972 30.2176 53.8302 31.3076 53.5241L31.23 53.5436L31.5663 53.4629ZM76.0057 53.4629V49.6003L75.9183 49.6337C74.9739 50.0372 73.8678 50.2904 72.7002 50.3377H72.6808C72.5708 50.3461 72.4447 50.3489 72.3153 50.3489C71.2221 50.3489 70.2163 50.0344 69.4109 49.5057L69.4239 49.514C68.7705 49.0771 68.2757 48.4871 68.0105 47.8081L68.0008 47.7831C67.8488 47.3962 67.7614 46.9482 67.7614 46.4835C67.7614 46.1217 67.8132 45.7683 67.9134 45.4343L67.907 45.4621C68.1269 44.6579 68.6412 43.9761 69.343 43.4891L69.3495 43.4835C69.9672 43.0355 70.7467 42.7321 71.6005 42.6431L71.6199 42.6403C71.869 42.6153 72.1601 42.6014 72.4512 42.6014C73.7158 42.6014 74.906 42.8713 75.9474 43.3472L75.9054 43.3305L76.0024 43.375V39.4901L75.7954 39.4428C74.7443 39.145 73.5347 38.9725 72.2798 38.9725C72.0792 38.9725 71.8787 38.9781 71.6814 38.9864H71.7105C70.3812 39.017 69.1328 39.2758 68.0008 39.7239L68.059 39.7016C66.8688 40.1775 65.8726 40.8481 65.0834 41.6747L65.0705 41.6886C63.8609 42.9937 63.1331 44.6635 63.1331 46.4835C63.1331 48.2228 63.7994 49.8257 64.9282 51.1169L64.912 51.0975C66.0861 52.3859 67.7226 53.3182 69.6017 53.7161L69.66 53.7273C70.4491 53.8998 71.358 54 72.2927 54C73.4991 54 74.6602 53.833 75.7502 53.5269L75.6725 53.5464L76.0024 53.4657L76.0057 53.4629Z" fill="black"/>
</g>
</svg>
