<svg width="90" height="64" viewBox="0 0 90 64" fill="none" xmlns="http://www.w3.org/2000/svg">
<g id="Citi_svg">
<g id="Group 9">
<path id="Vector" d="M31.7091 45.5275L31.5782 45.6483C29.5226 47.6442 27.1439 48.6986 24.6936 48.6986C19.5762 48.6986 15.8639 45.0402 15.8639 39.9942C15.8639 34.9559 19.5762 31.2917 24.6936 31.2917C27.1439 31.2917 29.5226 32.3519 31.5782 34.3556L31.7091 34.4745L35 30.6816L34.9121 30.5803C32.1754 27.4988 28.8906 26 24.8531 26C20.8054 26 17.0993 27.3 14.4322 29.6408C11.5279 32.1785 10 35.7569 10 39.9942C10 44.2314 11.5279 47.8176 14.4322 50.3553C17.0993 52.7097 20.8054 54 24.8531 54C28.8906 54 32.1754 52.4992 34.9121 49.4158L35 49.3223L31.7091 45.5275Z" fill="#004685"/>
<path id="Vector_2" d="M38 54H44V26H38V54Z" fill="#004685"/>
<path id="Vector_3" d="M65.656 47.5025C64.1017 48.4318 62.658 48.9005 61.3597 48.9005C59.4778 48.9005 58.6259 47.9229 58.6259 45.7505V30.9397H64.5584V25.6857H58.6259V17L52.9229 20.0012V25.6857H48V30.9397H52.9229V46.6939C52.9229 50.9844 55.5113 53.9212 59.3775 53.9977C62.0007 54.0479 63.5816 53.2795 64.5399 52.7163L64.6014 52.6781L66 47.2953L65.656 47.5025Z" fill="#004685"/>
<path id="Vector_4" d="M70 54H76V26H70V54Z" fill="#004685"/>
<path id="Vector_5" d="M79.744 21.6258C74.6298 14.3438 66.1382 10 57.499 10C48.8618 10 40.3683 14.3438 35.2639 21.6258L35 22H41.4395L41.5104 21.9228C45.8921 17.373 51.6148 14.9695 57.499 14.9695C63.3832 14.9695 69.102 17.373 73.4935 21.9228L73.5644 22H80L79.744 21.6258Z" fill="#EE1C25"/>
</g>
</g>
</svg>
