<svg width="71" height="64" viewBox="0 0 71 64" fill="none" xmlns="http://www.w3.org/2000/svg">
<g id="Ericsson_svg">
<g id="Group 8">
<path id="Vector" d="M28.1341 21.8156C27.7551 21.9516 27.3522 22.0135 26.9486 21.9976C26.5451 21.9817 26.1486 21.8884 25.7821 21.723C25.4155 21.5576 25.086 21.3234 24.8124 21.0338C24.5388 20.7442 24.3264 20.4048 24.1875 20.0351C24.0485 19.6654 23.9858 19.2727 24.0027 18.8793C24.0197 18.4859 24.116 18.0997 24.2862 17.7426C24.4565 17.3856 24.6973 17.0648 24.9948 16.7985C25.2924 16.5323 25.6409 16.3259 26.0204 16.191L42.8617 10.1944C43.2407 10.0535 43.6449 9.98802 44.0503 10.0018C44.4558 10.0156 44.8542 10.1084 45.2223 10.2747C45.5904 10.441 45.9205 10.6775 46.1933 10.9702C46.4661 11.2629 46.6759 11.6059 46.8105 11.9789C46.9505 12.3415 47.0141 12.728 46.9974 13.1151C46.9807 13.5022 46.8842 13.8821 46.7135 14.232C46.5428 14.5819 46.3015 14.8947 46.004 15.1517C45.7065 15.4086 45.3589 15.6045 44.982 15.7276L28.1341 21.8156Z" fill="#00285E"/>
<path id="Vector_2" d="M28.132 30.8164C27.753 30.9521 27.3503 31.0136 26.9469 30.9975C26.5435 30.9814 26.1473 30.8879 25.781 30.7224C25.4147 30.5569 25.0854 30.3227 24.812 30.0331C24.5386 29.7435 24.3264 29.4041 24.1875 29.0345C24.0486 28.6649 23.9858 28.2723 24.0027 27.879C24.0195 27.4857 24.1157 27.0995 24.2857 26.7425C24.4557 26.3854 24.6962 26.0646 24.9935 25.7982C25.2907 25.5318 25.6389 25.3252 26.0181 25.1901L42.8605 19.1984C43.239 19.0558 43.6431 18.9888 44.0487 19.0015C44.4542 19.0142 44.8531 19.1062 45.2215 19.2721C45.5899 19.4381 45.9203 19.6745 46.1931 19.9674C46.4659 20.2603 46.6756 20.6037 46.8096 20.9771C46.95 21.3397 47.0139 21.7261 46.9975 22.1133C46.981 22.5005 46.8845 22.8805 46.7137 23.2305C46.5429 23.5804 46.3014 23.8931 46.0037 24.1499C45.7059 24.4066 45.3581 24.6021 44.9809 24.7245L28.132 30.8164Z" fill="#00285E"/>
<path id="Vector_3" d="M28.1362 39.8145C27.7571 39.951 27.3541 40.0133 26.9504 39.9976C26.5466 39.982 26.1499 39.8889 25.7831 39.7236C25.4163 39.5583 25.0866 39.324 24.8128 39.0343C24.539 38.7445 24.3265 38.4049 24.1875 38.0349C24.0485 37.6649 23.9857 37.2718 24.0027 36.8782C24.0198 36.4845 24.1163 36.098 24.2868 35.7407C24.4573 35.3835 24.6984 35.0626 24.9963 34.7963C25.2941 34.5301 25.643 34.3238 26.0228 34.1892L42.8614 28.199C43.2397 28.0562 43.6436 27.989 44.0491 28.0015C44.4545 28.0139 44.8533 28.1058 45.2216 28.2715C45.5899 28.4373 45.9203 28.6735 46.1931 28.9663C46.4659 29.259 46.6756 29.6023 46.8096 29.9756C46.95 30.3382 47.0139 30.7246 46.9975 31.1119C46.981 31.4991 46.8845 31.8791 46.7138 32.229C46.5431 32.579 46.3016 32.8918 46.0039 33.1486C45.7063 33.4054 45.3585 33.6009 44.9814 33.7234L28.1362 39.8145Z" fill="#00285E"/>
<path id="Vector_4" d="M10 47H15.8997V48.4528H12.0394V49.6347H15.7977V51.1773H12.0394V52.4497H16V54H10V47Z" fill="#00285E"/>
<path id="Vector_5" d="M26 47H24V54H26V47Z" fill="#00285E"/>
<path id="Vector_6" d="M32.9111 47.3691L32.8219 48.76C31.3016 47.9818 28.9731 48.241 28.9731 50.4179C28.8838 52.6808 31.3016 53.0268 32.9111 52.2412L33 53.7187C30.2263 54.5043 27 53.7187 27 50.4179C27 47.2826 30.3151 46.4104 32.9111 47.3691Z" fill="#00285E"/>
<path id="Vector_7" d="M39.5814 47.2917L39.4769 48.673C38.3168 48.1576 36.2151 48.1576 36.2151 48.9308C36.2151 50.1402 40 49.2813 40 51.7863C40 54.2054 36.4246 54.2913 34.1045 53.683L34.218 52.2157C35.6832 52.7382 37.7937 52.91 37.7937 51.9581C37.7937 50.8344 34 51.4428 34 49.1023C34 47.1198 36.9477 46.5974 39.5814 47.2917Z" fill="#00285E"/>
<path id="Vector_8" d="M45.581 47.2917L45.4781 48.673C44.3171 48.1576 42.2082 48.1576 42.2082 48.9308C42.2082 50.1402 46 49.2813 46 51.7863C46 54.2054 42.4212 54.2913 40.1047 53.683L40.2094 52.2157C41.686 52.7382 43.7916 52.91 43.7916 51.9581C43.7916 50.8344 40 51.4428 40 49.1023C40 47.1198 42.9431 46.5974 45.581 47.2917Z" fill="#00285E"/>
<path id="Vector_9" d="M54 47H56.5594L59.0289 51.4559V47H61V54H58.5371L55.8713 49.3638V54H54V47Z" fill="#00285E"/>
<path id="Vector_10" d="M47.9964 50.5001C47.9964 51.5508 48.4558 52.6884 49.4509 52.6884C50.5442 52.6884 50.9943 51.5508 50.9943 50.5001C50.9943 49.6234 50.5442 48.3117 49.4509 48.3117C48.4557 48.3117 47.9964 49.4493 47.9964 50.5001ZM49.4509 47C51.4567 47 53 48.0508 53 50.5001C53 52.8624 51.4567 54 49.4509 54C47.5432 54 46 52.8624 46 50.5001C46 48.0508 47.5433 47 49.4509 47Z" fill="#00285E"/>
<path id="Vector_11" d="M17 47H20.3652C21.3589 47 22.631 47.3612 22.631 48.814C22.6554 49.2063 22.5413 49.5947 22.3088 49.9111C22.0762 50.2276 21.7399 50.452 21.3589 50.545C21.508 50.5919 21.6438 50.6737 21.7551 50.7836C21.8663 50.8936 21.9498 51.0286 21.9986 51.1773C21.9986 51.2677 23 53.9096 23 54H20.9975L20.2746 51.8172C20.2267 51.6849 20.1399 51.5702 20.0258 51.4883C19.9116 51.4063 19.7753 51.3609 19.6349 51.358C19.2735 51.358 18.8217 51.2677 18.8217 51.358V54H17V47ZM18.8217 49.9054H19.8154C19.9294 49.9163 20.0444 49.9035 20.1532 49.8678C20.2621 49.8321 20.3624 49.7743 20.4479 49.698C20.5334 49.6217 20.6023 49.5285 20.6502 49.4243C20.6982 49.3201 20.7242 49.2071 20.7265 49.0923C20.7265 48.6332 20.3652 48.3621 19.8154 48.3621H18.8217L18.8217 49.9054Z" fill="#00285E"/>
</g>
</g>
</svg>
