<svg width="30" height="30" viewBox="0 0 30 30" fill="none" xmlns="http://www.w3.org/2000/svg">
<g id="facebook_svg">
<g id="XMLID_834_">
<path id="XMLID_835_" d="M8.42858 16.1523H11.3413V28.1434C11.3413 28.3802 11.5331 28.572 11.7699 28.572H16.7085C16.9453 28.572 17.1371 28.3802 17.1371 28.1434V16.2087H20.4855C20.7032 16.2087 20.8864 16.0454 20.9113 15.8291L21.4198 11.4146C21.4338 11.2931 21.3953 11.1715 21.314 11.0803C21.2327 10.9891 21.1163 10.9369 20.9941 10.9369H17.1373V8.16968C17.1373 7.33549 17.5864 6.91248 18.4724 6.91248C18.5986 6.91248 20.9941 6.91248 20.9941 6.91248C21.2309 6.91248 21.4227 6.72056 21.4227 6.4839V2.43175C21.4227 2.195 21.2309 2.00317 20.9941 2.00317H17.5188C17.4943 2.00197 17.4398 2 17.3596 2C16.7566 2 14.6606 2.11837 13.0049 3.64155C11.1704 5.32947 11.4254 7.35049 11.4863 7.7009V10.9369H8.42858C8.19183 10.9369 8 11.1287 8 11.3654V15.7236C8 15.9603 8.19183 16.1523 8.42858 16.1523Z" fill="#0F0F10"/>
</g>
</g>
</svg>
