<svg width="122" height="64" viewBox="0 0 122 64" fill="none" xmlns="http://www.w3.org/2000/svg">
<g id="Hewlett-Packard-Enterprise_svg">
<g id="Group 7">
<path id="Vector" d="M42.812 18.6082H12.1891V12.3979H42.812V18.6082ZM45 10H10V21H45V10Z" fill="#00B188"/>
<path id="Vector_2" d="M12.1127 37H10V27H12.1127V30.9503H15.8873V27H18V37H15.8873V32.8572H12.1127V37Z" fill="#040404"/>
<path id="Vector_3" d="M21.8739 33.1135H24.2276C24.1837 32.3227 23.9081 31.7715 23.1378 31.7715C22.5566 31.7715 22.048 32.0645 21.8739 33.1135ZM23.3701 38C21.3653 38 20 36.503 20 34.0438C20 31.6513 21.3365 30 23.109 30C25.0411 30 26 31.5312 26 33.8197V34.6803H21.8739C22.1069 35.8665 22.891 36.1758 23.6758 36.1758C24.3585 36.1758 24.852 36.0045 25.462 35.5564H25.5353V37.3286C25.0123 37.7767 24.2708 38 23.3701 38Z" fill="#040404"/>
<path id="Vector_4" d="M31.9921 32.8771L30.9167 37H29.0891L27 30.0787V30H28.9971L30.1334 34.1392L31.2087 30H32.837L33.9276 34.1392L35.0797 30H37V30.0787L34.9109 37H33.0826L31.9921 32.8771Z" fill="#040404"/>
<path id="Vector_5" d="M40.2574 38C38.6536 38 38 37.2554 38 35.5063V27H39.9603V35.3495C39.9603 35.8865 40.1383 36.0769 40.5243 36.0769C40.6581 36.0769 40.8515 36.0254 40.9699 35.9731H41V37.8611C40.8367 37.9298 40.5544 37.9993 40.2574 37.9993" fill="#040404"/>
<path id="Vector_6" d="M44.1862 33.1135H46.9322C46.881 32.3227 46.5595 31.7715 45.6608 31.7715C44.9834 31.7715 44.3894 32.0645 44.1862 33.1135ZM45.9318 38C43.5929 38 42 36.503 42 34.0438C42 31.6513 43.5593 30 45.6271 30C47.8813 30 49 31.5312 49 33.8197V34.6803H44.1862C44.4573 35.8665 45.3729 36.1758 46.2877 36.1758C47.0849 36.1758 47.6606 36.0045 48.3731 35.5564H48.4578V37.3286C47.8477 37.7767 46.9833 38 45.9318 38Z" fill="#040404"/>
<path id="Vector_7" d="M57.3642 30.1142H59V31.9511H57.3642V35.0884C57.3642 35.7647 57.6146 36.0771 58.2825 36.0771C58.466 36.0771 58.6999 36.0592 58.9503 35.9725H59V37.7751C58.7164 37.8797 58.2825 38 57.6484 38C55.8615 38 55.1605 37.151 55.1605 35.1923V31.9511H52.3393V35.0884C52.3393 35.7647 52.5898 36.0771 53.2569 36.0771C53.4412 36.0771 53.6751 36.0592 53.9255 35.9725H53.9752V37.7751C53.6916 37.8797 53.2569 38 52.6236 38C50.8366 38 50.1357 37.151 50.1357 35.1923V31.9511H49V30.1142H50.1357V28H52.3393V30.1142H55.1605V28H57.3642V30.1142Z" fill="#040404"/>
<path id="Vector_8" d="M66.3628 31.9138C67.4093 31.9138 67.9084 31.2903 67.9084 30.3945C67.9084 29.4662 67.4093 28.8428 66.3628 28.8428H65.0596V31.9138H66.3628ZM70 30.3945C70 32.5703 68.621 33.7531 66.5294 33.7531H65.0596V37H63V27H66.5294C68.621 27 70 28.1834 70 30.391" fill="#040404"/>
<path id="Vector_9" d="M74.713 35.4424V34.786C74.3664 34.5968 73.9168 34.5275 73.4485 34.5275C72.7038 34.5275 72.2534 34.8031 72.2534 35.4252C72.2534 36.0652 72.7038 36.3416 73.379 36.3416C74.0198 36.3416 74.5053 36.013 74.713 35.4424ZM74.7824 37.1015C74.2798 37.7065 73.5359 38 72.7374 38C71.2309 38 70 37.0851 70 35.4595C70 33.9568 71.2309 32.9547 72.9973 32.9547C73.5515 32.9547 74.1244 33.0412 74.713 33.2133V33.0762C74.713 32.2462 74.2454 31.8842 73.016 31.8842C72.2355 31.8842 71.4908 32.1077 70.8492 32.4712H70.7633V30.6392C71.3519 30.2943 72.3923 30 73.4134 30C75.7355 30 77 31.1056 77 33.0412V37.8614H74.7824V37.1015Z" fill="#040404"/>
<path id="Vector_10" d="M78 34.0089C78 31.5482 79.4151 30 81.2637 30C81.9218 30 82.5376 30.1721 83 30.5846V32.5289H82.9294C82.5231 32.1506 82.0473 31.9266 81.5016 31.9266C80.5773 31.9266 79.877 32.7018 79.877 34.0089C79.877 35.316 80.5773 36.0734 81.5016 36.0734C82.0473 36.0734 82.5231 35.8494 82.9294 35.4703H83V37.4147C82.5376 37.8279 81.9218 38 81.2637 38C79.4151 38 78 36.4696 78 34.0089Z" fill="#040404"/>
<path id="Vector_11" d="M86.908 33.7697V37H85V27H86.908V32.6938L88.8315 29.8786H91V29.9586L88.6869 33.1897L91 36.9166V36.9966H88.8165L86.908 33.7662" fill="#040404"/>
<path id="Vector_12" d="M96.0391 35.4424V34.786C95.7426 34.5968 95.356 34.5275 94.9552 34.5275C94.3169 34.5275 93.9309 34.8031 93.9309 35.4252C93.9309 36.0652 94.3169 36.3416 94.895 36.3416C95.4456 36.3416 95.8611 36.013 96.0391 35.4424ZM96.0986 37.1015C95.6677 37.7065 95.0288 38 94.3464 38C93.0538 38 92 37.0851 92 35.4595C92 33.9568 93.0538 32.9547 94.5698 32.9547C95.0448 32.9547 95.5339 33.0412 96.0391 33.2133V33.0762C96.0391 32.2462 95.6383 31.8842 94.5839 31.8842C93.9161 31.8842 93.2766 32.1077 92.7273 32.4712H92.653V30.6392C93.1581 30.2943 94.0493 30 94.9251 30C96.9161 30 98 31.1056 98 33.0412V37.8614H96.0986V37.1015Z" fill="#040404"/>
<path id="Vector_13" d="M101.836 31.1979C102.179 30.4353 102.682 30 103.385 30C103.643 30 103.9 30.0624 104 30.1247V32.0845H103.929C103.714 31.9906 103.456 31.9289 103.097 31.9289C102.509 31.9289 102.051 32.3025 101.892 33.0174V37H100V30.0785H101.836V31.1985" fill="#040404"/>
<path id="Vector_14" d="M109.933 35.2108V32.7331C109.589 32.1788 109.135 31.9368 108.617 31.9368C107.71 31.9368 107.099 32.6651 107.099 33.9813C107.099 35.2974 107.71 36.0078 108.617 36.0078C109.135 36.0078 109.589 35.765 109.933 35.2108ZM109.995 37.0304C109.557 37.6541 108.868 38 107.929 38C106.143 38 105 36.199 105 33.9813C105 31.7635 106.143 29.9446 107.929 29.9446C108.837 29.9446 109.494 30.2568 109.933 30.8283V27H112V37.8237H109.995V37.0274" fill="#040404"/>
<path id="Vector_15" d="M10 41H16V42.2157H11.3522V45.2714H15.5644V46.4561H11.3522V49.7843H16V51H10V41.0028" fill="#040404"/>
<path id="Vector_16" d="M21.496 44C23.1055 44 24 45.0137 24 46.6809V51H22.6505V46.7125C22.6505 45.8238 22.1788 45.1845 21.1546 45.1845C20.3091 45.1845 19.5934 45.6994 19.3495 46.4315V51H18V44.1432H19.3495V45.1408C19.7722 44.5015 20.4879 44.0027 21.496 44.0027" fill="#040404"/>
<path id="Vector_17" d="M27.3382 43.8597H29V44.989H27.3382V48.7577C27.3382 49.5525 27.7206 49.8233 28.4116 49.8233C28.6025 49.8233 28.8085 49.7918 28.9556 49.728H29V50.8567C28.8237 50.9362 28.5733 51 28.2354 51C26.7201 51 26.1178 50.2519 26.1178 48.8853V44.989H25V43.8597H26.1178V42H27.3382V43.8597Z" fill="#040404"/>
<path id="Vector_18" d="M31.3403 46.8423H34.7531C34.7068 45.8492 34.2076 45.0854 33.1481 45.0854C32.1666 45.0854 31.527 45.8037 31.3403 46.8423ZM33.3819 51C31.3712 51 30 49.6853 30 47.5764C30 45.467 31.2778 44 33.1327 44C35.0185 44 36 45.3299 36 47.301V47.8822H31.2932C31.4337 49.2424 32.3225 49.8995 33.5532 49.8995C34.3171 49.8995 34.8619 49.7314 35.4699 49.2879H35.517V50.4043C34.956 50.832 34.223 51 33.3819 51Z" fill="#040404"/>
<path id="Vector_19" d="M39.4126 45.1743C39.7362 44.4383 40.4517 44 41.2677 44C41.592 44 41.8811 44.0466 42 44.1094V45.3931H41.9494C41.7446 45.2999 41.4041 45.2527 41.0637 45.2527C40.2983 45.2527 39.6511 45.722 39.4126 46.5053V51H38V44.1121H39.4126V45.177" fill="#040404"/>
<path id="Vector_20" d="M45.8306 50.1969C47.0394 50.1969 47.7474 49.1455 47.7474 47.7047C47.7474 46.2814 47.0394 45.214 45.8306 45.214C45.1671 45.214 44.5481 45.6507 44.224 46.3456V49.0813C44.5481 49.7762 45.1671 50.1969 45.8306 50.1969ZM46.0372 44C47.9679 44 49 45.7317 49 47.7047C49 49.6799 47.9679 51.4109 46.0372 51.4109C45.2409 51.4109 44.5628 50.9581 44.224 50.4718V54H43V44.1486H44.224V44.9572C44.5628 44.4556 45.2409 44.0028 46.0372 44.0028" fill="#040404"/>
<path id="Vector_21" d="M52.4128 45.1743C52.7358 44.4383 53.4514 44 54.2683 44C54.5919 44 54.8811 44.0466 55 44.1094V45.3931H54.9494C54.7453 45.2999 54.4048 45.2527 54.0642 45.2527C53.298 45.2527 52.6514 45.722 52.4128 46.5053V51H51V44.1121H52.4128V45.177" fill="#040404"/>
<path id="Vector_22" d="M56.5002 41C56.7739 41 57 41.442 57 42C57 42.558 56.7739 43 56.5002 43C56.2363 43 56 42.558 56 42C56 41.442 56.2363 41 56.5002 41Z" fill="#040404"/>
<path id="Vector_23" d="M56 51H57V44H56V51Z" fill="#040404"/>
<path id="Vector_24" d="M61.9094 46.9346C62.8998 47.2397 64 47.6371 64 48.9208C64 50.2968 62.8368 51 61.3434 51C60.431 51 59.5193 50.7858 59 50.3884V49.1811H59.063C59.6453 49.7004 60.5096 49.9298 61.3271 49.9298C62.066 49.9298 62.727 49.6543 62.727 49.0737C62.727 48.478 62.1772 48.3402 61.0912 47.989C60.1165 47.6832 59.0319 47.3313 59.0319 46.0634C59.0319 44.7638 60.132 44 61.5319 44C62.3494 44 63.0727 44.168 63.6543 44.5503V45.7734H63.6075C63.0422 45.3299 62.3806 45.0696 61.563 45.0696C60.7455 45.0696 60.2893 45.4215 60.2893 45.8953C60.2893 46.4304 60.7923 46.5827 61.9094 46.9346Z" fill="#040404"/>
<path id="Vector_25" d="M66.3404 46.8423H69.753C69.7066 45.8492 69.2081 45.0854 68.1478 45.0854C67.1662 45.0854 66.5272 45.8037 66.3404 46.8423ZM68.3816 51C66.3713 51 65 49.6853 65 47.5764C65 45.467 66.2779 44 68.1324 44C70.019 44 71 45.3299 71 47.301V47.8822H66.2934C66.4338 49.2424 67.3221 49.8995 68.553 49.8995C69.3176 49.8995 69.8625 49.7314 70.4699 49.2879H70.5169V50.4043C69.9566 50.832 69.2235 51 68.3816 51Z" fill="#040404"/>
</g>
</g>
</svg>
