<svg width="30" height="30" viewBox="0 0 30 30" fill="none" xmlns="http://www.w3.org/2000/svg">
<g id="insta_svg">
<path id="Vector" d="M16.25 26.25C20.964 26.25 23.3211 26.25 24.7855 24.7855C26.25 23.3211 26.25 20.964 26.25 16.25L26.25 13.75C26.25 9.036 26.25 6.67888 24.7855 5.2145C23.3211 3.75 20.964 3.75 16.25 3.75L13.75 3.75C9.036 3.75 6.67887 3.75 5.2145 5.2145C3.75 6.67888 3.75 9.036 3.75 13.75L3.75 16.25C3.75 20.9641 3.75 23.3211 5.2145 24.7855C6.67888 26.25 9.036 26.25 13.75 26.25L16.25 26.25Z" stroke="#0F0F10" stroke-width="2"/>
<path id="Vector_2" d="M18.75 9.375C18.75 8.33947 19.5895 7.5 20.625 7.5C21.6605 7.5 22.5 8.33947 22.5 9.375C22.5 10.4105 21.6605 11.25 20.625 11.25C19.5895 11.25 18.75 10.4105 18.75 9.375Z" fill="#0F0F10"/>
<path id="Vector_3" d="M11.25 15C11.25 12.9289 12.9289 11.25 15 11.25C17.0711 11.25 18.75 12.9289 18.75 15C18.75 17.0711 17.0711 18.75 15 18.75C12.9289 18.75 11.25 17.0711 11.25 15Z" stroke="#0F0F10" stroke-width="2"/>
</g>
</svg>
