<svg width="134" height="43" viewBox="0 0 134 43" fill="none" xmlns="http://www.w3.org/2000/svg">
<g id="logo mentohub">
<g id="g8">
<g id="g10">
<path id="path12" d="M29.2798 30.0983L29.2715 12.9001H25.2994L20.3139 26.8647L15.3195 12.9001H11.3123L11.311 30.0983H13.9783V16.8997L18.9637 30.0983H20.3139H21.6207L26.6055 16.8997V30.0983H29.2798Z" fill="#0F0F10"/>
</g>
<g id="g14">
<g id="Clip path group">
<mask id="mask0_125_2" style="mask-type:luminance" maskUnits="userSpaceOnUse" x="0" y="0" width="134" height="43">
<g id="clipPath20">
<path id="path18" d="M0 3.8147e-06H134V43H0V3.8147e-06Z" fill="white"/>
</g>
</mask>
<g mask="url(#mask0_125_2)">
<g id="g16">
<g id="g22">
<path id="path24" d="M37.367 20.9009C40.6902 20.9009 40.6902 23.3009 40.6902 23.3009H34.0087C34.0087 23.3009 34.0783 20.9009 37.367 20.9009ZM37.367 27.5334C34.3807 27.5334 34.0087 25.1174 34.0087 25.1174H43.3913C43.3913 20.9427 41.4177 18.3516 37.3581 18.3516C33.4115 18.3516 31.3428 20.6012 31.3428 24.4632C31.3428 28.0838 34.0604 30.0999 37.3843 30.0999C41.4177 30.0999 42.9497 27.7336 42.9497 27.7336L40.9761 26.0505C40.9761 26.0505 39.9379 27.5334 37.367 27.5334Z" fill="#0F0F10"/>
</g>
<g id="g26">
<path id="path28" d="M57.1803 22.449C57.1663 21.8396 56.8894 18.4475 52.4463 18.4475C49.0759 18.4475 47.9414 19.8794 47.734 20.1927V18.3492H45.0591V30.0938H47.734V22.3998C47.8941 21.9827 48.665 20.5723 51.7674 20.5723C54.4155 20.5723 54.5061 22.543 54.5061 22.543H54.5105V30.0938H57.1854V22.449H57.1803Z" fill="#0F0F10"/>
</g>
<g id="g30">
<path id="path32" d="M94.3635 22.449C94.3501 21.8396 94.0732 18.4475 89.6295 18.4475C86.2591 18.4475 85.1246 19.8794 84.9172 20.1927V12.9048H82.2429V30.0938H84.9172V22.3998C85.0773 21.9827 85.8475 20.5723 88.9506 20.5723C91.5987 20.5723 91.6893 22.543 91.6893 22.543H91.6937V30.0938H94.3686V22.449H94.3635Z" fill="#0F0F10"/>
</g>
<g id="g34">
<path id="path36" d="M96.373 26.0111C96.3864 26.6205 96.6634 30.0132 101.107 30.0132C104.477 30.0132 105.612 28.5806 105.819 28.2674V30.0936H108.494V18.3657H105.819V26.0602C105.659 26.4779 104.889 27.8883 101.786 27.8883C99.1373 27.8883 99.0466 25.9177 99.0466 25.9177H99.0428V18.3657H96.3679V26.0111H96.373Z" fill="#0F0F10"/>
</g>
<g id="g38">
<path id="path40" d="M66.5243 20.9445V18.3701H64.0402V14.0664L61.3659 15.9332V18.3701H58.8818V20.9445H61.3659V26.8921L61.3602 26.8939C61.3602 26.9387 61.3647 26.9793 61.3659 27.0235V27.0254C61.4834 30.7872 66.5154 30.0366 66.5154 30.0366L66.5173 27.4984C66.5173 27.4984 64.5532 27.8528 64.0402 26.9105V20.9445H66.5243Z" fill="#0F0F10"/>
</g>
<g id="g42">
<path id="path44" d="M74.1768 27.5415C70.6608 27.5415 70.8185 24.1899 70.8185 24.1899C70.8185 24.1899 70.4879 20.909 74.1768 20.909C77.7239 20.909 77.5006 24.201 77.5006 24.201L77.5031 24.1942C77.5031 24.1942 77.8101 27.5415 74.1768 27.5415ZM74.1519 18.3511C67.6758 18.3511 68.1365 24.4627 68.1365 24.4627C68.1365 24.4627 68.0778 30.1 74.178 30.1C80.2782 30.1 80.2923 24.2999 80.2923 24.2999C80.2923 24.2999 80.6279 18.3511 74.1519 18.3511Z" fill="#0F0F10"/>
</g>
<g id="g46">
<path id="path48" d="M116.67 27.5355C113.154 27.5355 113.312 24.1839 113.312 24.1839C113.312 24.1839 112.981 20.903 116.67 20.903C120.217 20.903 119.994 24.1944 119.994 24.1944L119.996 24.1882C119.996 24.1882 120.303 27.5355 116.67 27.5355ZM116.645 18.3451C115.183 18.3451 114.077 18.6578 113.237 19.14V12.9001H110.605V30.0983H113.237V29.2604C114.08 29.761 115.194 30.0934 116.671 30.0934C122.771 30.0934 122.668 24.2994 122.668 24.2994C122.668 24.2994 123.121 18.3451 116.645 18.3451Z" fill="#0F0F10"/>
</g>
</g>
</g>
</g>
</g>
</g>
</g>
</svg>
