<svg width="148" height="64" viewBox="0 0 148 64" fill="none" xmlns="http://www.w3.org/2000/svg">
<g id="samsung_svg">
<path id="Vector" d="M137.921 20.4754C136.18 10.1282 106.152 6.89914 70.8489 13.2629C56.0226 15.9368 42.6353 19.8807 32.2098 24.3177C33.8113 24.354 34.999 24.7342 35.7207 25.4794C36.2849 26.0642 36.5699 26.8669 36.5699 27.8669V28.8933H33.1081V27.987C33.1081 27.2319 32.6708 26.7639 31.8962 26.7639C31.2453 26.7639 30.8443 27.0682 30.7148 27.6675C30.6715 27.9045 30.6762 28.1481 30.7289 28.3831C31.0993 29.9507 36.2396 30.9243 36.7987 33.8174C36.872 34.1897 36.9715 34.9864 36.8147 36.1263C36.494 38.4597 34.5138 39.36 31.9931 39.36C28.4746 39.36 27.0452 37.6346 27.0452 35.2557L27.0478 34.1303H30.7588L30.7607 35.5323C30.7607 36.3204 31.3141 36.7554 32.0677 36.7554C32.7817 36.7554 33.1986 36.4577 33.3427 35.8491C33.4097 35.5692 33.439 35.1567 33.3172 34.8412C32.6306 33.0577 27.8307 32.2247 27.2397 29.3408C27.1077 28.6926 27.0969 28.1408 27.2065 27.4431C27.2628 27.0973 27.3663 26.7614 27.5138 26.4458C15.9498 32.0451 9.185 38.2062 10.0788 43.5257C11.8212 53.8742 41.8486 57.1 77.1515 50.7363C92.6701 47.9396 106.622 43.7528 117.24 39.061C117.086 39.0689 116.937 39.0861 116.777 39.0861C114.361 39.0861 112.204 38.1488 111.98 35.5917C111.941 35.1263 111.934 34.9316 111.932 34.6662L111.934 28.7877C111.934 28.5342 111.962 28.0893 111.99 27.8596C112.276 25.3883 114.163 24.3692 116.779 24.3692C118.803 24.3692 121.285 24.9705 121.558 27.8616C121.594 28.2246 121.59 28.6121 121.589 28.7395V29.2946H118.093V28.4662C118.093 28.4484 118.088 28.1388 118.05 27.9454C117.993 27.6504 117.75 26.9665 116.754 26.9665C115.77 26.9665 115.515 27.6517 115.451 27.9461C115.415 28.1078 115.398 28.3401 115.398 28.5976V34.9864C115.395 35.2082 115.405 35.3818 115.427 35.5092C115.444 35.6095 115.621 36.49 116.766 36.49C117.903 36.49 118.079 35.6095 118.095 35.5092C118.125 35.3362 118.128 35.1303 118.127 34.9864V33.0068H116.751V30.8748H121.616V34.6676C121.615 34.9257 121.611 35.1164 121.569 35.5917C121.51 36.2623 121.306 36.83 120.986 37.3151C132.247 31.7791 138.803 25.7177 137.921 20.4754ZM46.3801 38.8141L44.609 26.3547H44.5453L42.729 38.8141H38.9963L41.5068 24.7434H47.5971L50.0924 38.8141H46.3801ZM64.334 38.8141L64.2518 26.5956H64.1919L61.9956 38.8141H58.4924L56.307 26.5956H56.2445L56.1648 38.8141H52.6935L52.9944 24.7434H58.5778L60.2035 35.1956H60.2832L61.9134 24.7434H67.4943L67.7939 38.8141H64.334ZM80.6808 36.0874C80.3072 38.8128 77.7284 39.2894 75.9057 39.2894C72.8794 39.2894 71.0076 37.9501 71.0076 35.2247L71.0096 34.1131H74.676L74.6785 35.4979C74.6785 36.2498 75.1904 36.7098 75.981 36.7098C76.6861 36.7098 77.0992 36.4167 77.2426 35.8148C77.3089 35.5342 77.3364 35.125 77.2191 34.8161C76.5433 33.0662 71.781 32.2088 71.2021 29.3699C71.0695 28.7263 71.0599 28.1798 71.1689 27.4893C71.5719 24.9157 73.9575 24.3811 75.8777 24.3811C77.5952 24.3811 78.8454 24.7692 79.5951 25.5454C80.1542 26.125 80.4373 26.9203 80.4373 27.9098V28.925H77.0087V28.0293C77.0087 27.2623 76.549 26.8187 75.8101 26.8187C75.1547 26.8187 74.7582 27.1203 74.6282 27.7137C74.5859 27.9482 74.5916 28.1893 74.6447 28.4213C75.0119 29.9817 80.107 30.9355 80.6649 33.8016C80.7369 34.1672 80.8357 34.9521 80.6808 36.0874ZM93.379 34.8088C93.3841 35.0728 93.3592 35.6002 93.3452 35.7356C93.1361 38.0537 91.5347 39.2319 88.5976 39.2319C85.649 39.2319 84.0463 38.0537 83.8385 35.7356C83.8149 35.4281 83.8036 35.1198 83.8047 34.8115V24.7401H87.3123V35.129C87.3085 35.3613 87.32 35.5329 87.3423 35.6524C87.3857 35.8834 87.6075 36.6333 88.5976 36.6333C89.5845 36.6333 89.8063 35.8828 89.8529 35.655C89.8726 35.5323 89.8847 35.3521 89.8847 35.1283V24.7401H93.379V34.8088ZM108.492 38.6709H103.611L100.334 27.5256H100.28L100.461 38.6709H97.0594V24.7434H102.145L105.173 35.4497H105.244L105.065 24.7434H108.492V38.6709Z" fill="#2D4F9E"/>
</g>
</svg>
