<svg width="64" height="64" viewBox="0 0 64 64" fill="none" xmlns="http://www.w3.org/2000/svg">
<g id="volkswagen_svg">
<path id="Vector" fill-rule="evenodd" clip-rule="evenodd" d="M32 10C19.8496 10 10 19.8501 10 32C10 44.1502 19.8498 54 32 54C44.1497 54 54 44.1502 54 32C54 19.8503 44.1497 10 32 10ZM32 52.0275C20.939 52.0275 11.9725 43.061 11.9725 32C11.9725 20.9394 20.939 11.9727 32 11.9727C43.0606 11.9727 52.0275 20.9394 52.0275 32C52.0275 43.061 43.0606 52.0275 32 52.0275Z" fill="black"/>
<path id="Vector_2" fill-rule="evenodd" clip-rule="evenodd" d="M28 16.6653C29.3002 16.2226 30.6478 15.9985 32.0023 16C33.3901 16 34.7317 16.2319 36 16.664L32.0023 27L28 16.6653Z" fill="black"/>
<path id="Vector_3" fill-rule="evenodd" clip-rule="evenodd" d="M40.6537 19C42.343 20.043 43.8169 21.3813 45 22.9465L37.6019 38.7913L34.747 32.6476H29.338L26.4834 38.7911L19.0959 22.9317C20.2768 21.3728 21.7466 20.0397 23.4306 19.0002L29.338 31.6841H34.7654L40.6537 19ZM16.5424 28.0836C16.1813 29.3945 15.9989 30.7454 16 32.102C16 38.1867 19.6158 43.4534 24.8813 46L16.5424 28.0836Z" fill="black"/>
<path id="Vector_4" fill-rule="evenodd" clip-rule="evenodd" d="M28 47.3831C29.4091 47.7938 30.868 48.0014 32.334 48C33.8358 48 35.2881 47.7851 36.6628 47.3848L32.334 37.6182L28 47.3831ZM39.3266 46.3306C44.4689 43.7202 48 38.3215 48 32.0843C48 30.6723 47.8189 29.3034 47.4798 28L39.3266 46.3306Z" fill="black"/>
</g>
</svg>
