<svg width="30" height="30" viewBox="0 0 30 30" fill="none" xmlns="http://www.w3.org/2000/svg">
<g id="youtube_svg" clip-path="url(#clip0_441_63)">
<g id="Page-1">
<g id="Dribbble-Light-Preview">
<g id="icons">
<path id="youtube-[#168]" fill-rule="evenodd" clip-rule="evenodd" d="M11.9827 18.8792V10.4614C14.971 11.8676 17.2854 13.226 20.0227 14.6905C17.765 15.9425 14.971 17.3474 11.9827 18.8792ZM28.6365 6.27493C28.121 5.59579 27.2425 5.06713 26.3071 4.89211C23.5579 4.37004 6.40648 4.36855 3.65873 4.89211C2.90866 5.03272 2.24075 5.3726 1.667 5.90066C-0.750544 8.14451 0.00699927 20.1776 0.589721 22.1267C0.834761 22.9704 1.15154 23.5789 1.55048 23.9783C2.06446 24.5063 2.7682 24.8699 3.57654 25.033C5.84018 25.5012 17.5021 25.763 26.2593 25.1033C27.0661 24.9627 27.7803 24.5874 28.3436 24.0369C30.5789 21.802 30.4265 9.0932 28.6365 6.27493Z" fill="#0F0F10"/>
</g>
</g>
</g>
</g>
<defs>
<clipPath id="clip0_441_63">
<rect width="30" height="30" fill="white"/>
</clipPath>
</defs>
</svg>
